<svg width="56" height="56" viewBox="0 0 56 56" fill="none" xmlns="http://www.w3.org/2000/svg">
<path d="M28 43.9997C27.448 43.9997 27 43.5527 27 42.9997L27 4.99973C27 4.44673 27.448 3.99973 28 3.99973C28.552 3.99973 29 4.44673 29 4.99973L29 42.9997C29 43.5527 28.552 43.9997 28 43.9997Z" fill="#D3DBDF"/>
<path d="M28 44C27.744 44 27.488 43.902 27.293 43.707C26.902 43.316 26.902 42.684 27.293 42.293L39.293 30.293C39.684 29.902 40.316 29.902 40.707 30.293C41.098 30.684 41.098 31.316 40.707 31.707L28.707 43.707C28.512 43.902 28.256 44 28 44Z" fill="#D3DBDF"/>
<path d="M28 44C27.744 44 27.488 43.902 27.293 43.707L15.293 31.707C14.902 31.316 14.902 30.684 15.293 30.293C15.684 29.902 16.316 29.902 16.707 30.293L28.707 42.293C29.098 42.684 29.098 43.316 28.707 43.707C28.512 43.902 28.256 44 28 44Z" fill="#D3DBDF"/>
<path d="M28 44C27.744 44 27.488 43.902 27.293 43.707L15.293 31.707C14.902 31.316 14.902 30.684 15.293 30.293C15.684 29.902 16.316 29.902 16.707 30.293L28.707 42.293C29.098 42.684 29.098 43.316 28.707 43.707C28.512 43.902 28.256 44 28 44Z" fill="#D3DBDF"/>
<path d="M56 52H0L0 39C0 38.447 0.448 38 1 38C1.552 38 2 38.447 2 39V50H54V39C54 38.447 54.448 38 55 38C55.552 38 56 38.447 56 39V52Z" fill="#D3DBDF"/>
</svg>
