<svg width="24" height="24" viewBox="0 0 24 24" fill="none" xmlns="http://www.w3.org/2000/svg">
<path d="M22.1534 4.38463C22.1534 4.0154 21.8303 3.69232 21.4611 3.69232H2.53801C2.16878 3.69232 1.8457 4.0154 1.8457 4.38463V5.76924C1.8457 6.13847 2.16878 6.46155 2.53801 6.46155H21.4611C21.8303 6.46155 22.1534 6.13847 22.1534 5.76924V4.38463Z" fill="black"/>
<path d="M22.1534 18.2308C22.1534 17.8615 21.8303 17.5385 21.4611 17.5385H2.53801C2.16878 17.5385 1.8457 17.8615 1.8457 18.2308V19.6154C1.8457 19.9846 2.16878 20.3077 2.53801 20.3077H21.4611C21.8303 20.3077 22.1534 19.9846 22.1534 19.6154V18.2308Z" fill="black"/>
<path d="M15.9232 13.3846C16.2925 13.3846 16.6155 13.0615 16.6155 12.6923V11.3077C16.6155 10.9384 16.2925 10.6154 15.9232 10.6154H8.07707C7.70784 10.6154 7.38477 10.9384 7.38477 11.3077V12.6923C7.38477 13.0615 7.70784 13.3846 8.07707 13.3846H15.9232Z" fill="black"/>
</svg>
