<svg width="24" height="24" viewBox="0 0 24 24" fill="none" xmlns="http://www.w3.org/2000/svg">
<path d="M23.5007 6.99999C23.4989 5.62203 23.0228 4.28669 22.1525 3.21835C21.2822 2.15002 20.0707 1.4138 18.7216 1.13342C17.3725 0.853031 15.9679 1.04557 14.744 1.67867C13.5201 2.31177 12.5514 3.34686 12.0007 4.60999C11.5207 3.50479 10.719 2.56974 9.70004 1.92658C8.68109 1.28341 7.49211 0.961945 6.28789 1.00403C5.08368 1.04611 3.92003 1.44979 2.94847 2.16252C1.97691 2.87524 1.24245 3.86398 0.840721 4.99999C0.000720859 7.44999 0.820721 9.93999 2.51072 12L12.0007 23L21.7107 11.78C22.8307 10.4349 23.4617 8.74988 23.5007 6.99999Z" fill="#FF6060"/>
</svg>
