<svg width="16" height="16" viewBox="0 0 16 16" fill="none" xmlns="http://www.w3.org/2000/svg">
<path d="M13.666 4.66665H2.33268C2.15587 4.66665 1.9863 4.59641 1.86128 4.47138C1.73625 4.34636 1.66602 4.17679 1.66602 3.99998C1.66602 3.82317 1.73625 3.6536 1.86128 3.52858C1.9863 3.40355 2.15587 3.33331 2.33268 3.33331H13.666C13.8428 3.33331 14.0124 3.40355 14.1374 3.52858C14.2624 3.6536 14.3327 3.82317 14.3327 3.99998C14.3327 4.17679 14.2624 4.34636 14.1374 4.47138C14.0124 4.59641 13.8428 4.66665 13.666 4.66665Z" fill="#6F7380"/>
<path d="M13.666 8.66665H2.33268C2.15587 8.66665 1.9863 8.59641 1.86128 8.47138C1.73625 8.34636 1.66602 8.17679 1.66602 7.99998C1.66602 7.82317 1.73625 7.6536 1.86128 7.52858C1.9863 7.40355 2.15587 7.33331 2.33268 7.33331H13.666C13.8428 7.33331 14.0124 7.40355 14.1374 7.52858C14.2624 7.6536 14.3327 7.82317 14.3327 7.99998C14.3327 8.17679 14.2624 8.34636 14.1374 8.47138C14.0124 8.59641 13.8428 8.66665 13.666 8.66665Z" fill="#6F7380"/>
<path d="M13.666 12.6666H2.33268C2.15587 12.6666 1.9863 12.5964 1.86128 12.4714C1.73625 12.3464 1.66602 12.1768 1.66602 12C1.66602 11.8232 1.73625 11.6536 1.86128 11.5286C1.9863 11.4036 2.15587 11.3333 2.33268 11.3333H13.666C13.8428 11.3333 14.0124 11.4036 14.1374 11.5286C14.2624 11.6536 14.3327 11.8232 14.3327 12C14.3327 12.1768 14.2624 12.3464 14.1374 12.4714C14.0124 12.5964 13.8428 12.6666 13.666 12.6666Z" fill="#6F7380"/>
</svg>
