<svg width="16" height="16" viewBox="0 0 16 16" fill="none" xmlns="http://www.w3.org/2000/svg">
<path d="M0.989691 0.989691H3.49691V0H0V3.49691H0.989691V0.989691Z" fill="#6F7380"/>
<path d="M12.5039 0V0.989691H15.0111V3.49691H16.0008V0H12.5039Z" fill="#6F7380"/>
<path d="M9.50597 0H6.50391V0.989691H9.50597V0Z" fill="#6F7380"/>
<path d="M9.50597 15.0103H6.50391V16H9.50597V15.0103Z" fill="#6F7380"/>
<path d="M15.0111 15.0103H12.5039V16H16.0008V12.5031H15.0111V15.0103Z" fill="#6F7380"/>
<path d="M15.9995 6.49896H15.0098V9.50102H15.9995V6.49896Z" fill="#6F7380"/>
<path d="M0.989691 6.49896H0V9.50102H0.989691V6.49896Z" fill="#6F7380"/>
<path d="M9.05505 8.92772L7.07227 6.94491L8.34768 5.66949L10.3305 7.65227L9.05505 8.92772Z" fill="#6F7380"/>
<path d="M0.824219 15.1753L3.08279 14.5159L1.48355 12.9167L0.824219 15.1753Z" fill="#6F7380"/>
<path d="M1.99219 12.025L6.37259 7.64459L8.35541 9.6274L3.975 14.0078L1.99219 12.025Z" fill="#6F7380"/>
</svg>
