<svg width="16" height="16" viewBox="0 0 16 16" fill="none" xmlns="http://www.w3.org/2000/svg">
<g clip-path="url(#clip0_178_1063)">
<path d="M13.0433 1.2161H9.75008V0.887721C9.75008 0.398273 9.35673 0 8.87323 0H7.12857C6.64496 0 6.25157 0.398273 6.25157 0.887771V1.21615H2.95836C2.46978 1.21615 2.07227 1.61031 2.07227 2.09473V2.67525C2.07227 3.03934 2.29677 3.35233 2.61566 3.48546C2.71668 5.49806 3.30137 15.2286 3.32768 15.6658C3.33896 15.8536 3.49449 16.0001 3.68258 16.0001H12.3192C12.5073 16.0001 12.6628 15.8536 12.6741 15.6658C12.7004 15.2286 13.285 5.49806 13.3861 3.48546C13.705 3.35233 13.9295 3.03934 13.9295 2.67525V2.09468C13.9295 1.61026 13.532 1.2161 13.0433 1.2161ZM6.96268 0.887771C6.96268 0.790349 7.03709 0.711111 7.12857 0.711111H8.87323C8.96466 0.711111 9.03902 0.790349 9.03902 0.887771V1.21615H6.96273V0.887771H6.96268ZM2.78327 2.09468C2.78327 2.00234 2.8618 1.92721 2.95826 1.92721H13.0433C13.1397 1.92721 13.2183 2.00229 13.2183 2.09468V2.6752C13.2183 2.76759 13.1397 2.84277 13.0433 2.84277H2.95831C2.86185 2.84277 2.78333 2.76764 2.78333 2.6752V2.09468H2.78327ZM11.9842 15.2889H4.01731C3.91293 13.5494 3.43425 5.55307 3.33108 3.55388H12.6704C12.5672 5.55307 12.0886 13.5494 11.9842 15.2889Z" fill="#6F7380"/>
<path d="M8.00009 4.83173C7.80372 4.83173 7.64453 4.99091 7.64453 5.18728V14.1325C7.64453 14.3289 7.80372 14.4881 8.00009 14.4881C8.19646 14.4881 8.35564 14.3289 8.35564 14.1325V5.18728C8.35564 4.99091 8.19646 4.83173 8.00009 4.83173Z" fill="#6F7380"/>
<path d="M5.59927 5.183C5.58901 4.98693 5.42113 4.83572 5.22568 4.84649C5.02961 4.8567 4.87891 5.02396 4.88917 5.22008L5.35556 14.1511C5.36546 14.3408 5.52242 14.4881 5.7103 14.4881C5.71655 14.4881 5.72285 14.4879 5.72915 14.4876C5.92521 14.4774 6.07592 14.3101 6.06566 14.114L5.59927 5.183Z" fill="#6F7380"/>
<path d="M10.7761 4.84648C10.5781 4.83515 10.4128 4.98687 10.4025 5.18299L9.93604 14.114C9.92578 14.3101 10.0765 14.4774 10.2725 14.4876C10.2789 14.4879 10.2851 14.4881 10.2914 14.4881C10.4792 14.4881 10.6362 14.3409 10.6461 14.1511L11.1126 5.22007C11.1229 5.02395 10.9722 4.85669 10.7761 4.84648Z" fill="#6F7380"/>
</g>
<defs>
<clipPath id="clip0_178_1063">
<rect width="16" height="16" fill="white"/>
</clipPath>
</defs>
</svg>
