<svg width="14" height="14" viewBox="0 0 14 14" fill="none" xmlns="http://www.w3.org/2000/svg">
<path d="M0.865979 0.865979H3.05979V0H0V3.05979H0.865979V0.865979Z" fill="#6F7380"/>
<path d="M10.9395 0V0.865979H13.1333V3.05979H13.9992V0H10.9395Z" fill="#6F7380"/>
<path d="M8.31821 0H5.69141V0.865979H8.31821V0Z" fill="#6F7380"/>
<path d="M8.31821 13.134H5.69141V14H8.31821V13.134Z" fill="#6F7380"/>
<path d="M13.1333 13.134H10.9395V14H13.9992V10.9402H13.1333V13.134Z" fill="#6F7380"/>
<path d="M14.0007 5.68658H13.1348V8.31339H14.0007V5.68658Z" fill="#6F7380"/>
<path d="M0.865979 5.68658H0V8.31339H0.865979V5.68658Z" fill="#6F7380"/>
<path d="M7.92243 7.81176L6.1875 6.0768L7.30349 4.96082L9.03845 6.69575L7.92243 7.81176Z" fill="#6F7380"/>
<path d="M0.720703 13.2784L2.69695 12.7015L1.29762 11.3021L0.720703 13.2784Z" fill="#6F7380"/>
<path d="M1.74219 10.5219L5.57504 6.68903L7.31001 8.42399L3.47715 12.2568L1.74219 10.5219Z" fill="#6F7380"/>
</svg>
