<svg width="14" height="14" viewBox="0 0 14 14" fill="none" xmlns="http://www.w3.org/2000/svg">
<path d="M13.7075 4.08334C13.7064 3.27953 13.4287 2.50058 12.921 1.87738C12.4133 1.25419 11.7066 0.824727 10.9196 0.661169C10.1326 0.497611 9.31333 0.609924 8.59938 0.979234C7.88543 1.34854 7.32036 1.95234 6.99912 2.68917C6.71909 2.04447 6.25144 1.49902 5.65705 1.12385C5.06267 0.748668 4.36909 0.561145 3.66664 0.585693C2.96418 0.610241 2.28538 0.845724 1.71864 1.26148C1.15189 1.67723 0.723459 2.254 0.489118 2.91667C-0.000881612 4.34584 0.477452 5.79834 1.46329 7L6.99912 13.4167L12.6633 6.87167C13.3166 6.08703 13.6847 5.10411 13.7075 4.08334Z" fill="#FF6060"/>
</svg>
