<svg width="14" height="14" viewBox="0 0 14 14" fill="none" xmlns="http://www.w3.org/2000/svg">
<path d="M14 0H0V14H14V0Z" fill="white" fill-opacity="0.01"/>
<path d="M7 12.8334C9.40179 12.8334 11.3749 10.93 11.3749 8.48697C11.3749 7.88721 11.3445 7.24429 11.012 6.24507C10.6796 5.24588 10.6126 5.1169 10.2611 4.49982C10.1109 5.7591 9.30738 6.28392 9.10324 6.44078C9.10324 6.27759 8.61715 4.47299 7.88013 3.39324C7.15662 2.33335 6.17266 1.638 5.59571 1.16669C5.59571 2.06204 5.34389 3.39324 4.98324 4.07151C4.6226 4.74978 4.55487 4.77449 4.10439 5.27925C3.65394 5.784 3.44718 5.9399 3.07049 6.55234C2.69382 7.16481 2.625 7.98055 2.625 8.5803C2.625 11.0233 4.59821 12.8334 7 12.8334Z" fill="#FF862F" stroke="black" stroke-linejoin="round"/>
</svg>
